<svg width="236" height="44" viewBox="0 0 236 44" fill="none" xmlns="http://www.w3.org/2000/svg">
<path d="M0.47 17.3C0.47 14.416 1.114 11.84 2.402 9.572C3.718 7.276 5.496 5.498 7.736 4.238C10.004 2.95 12.538 2.306 15.338 2.306C18.614 2.306 21.484 3.146 23.948 4.826C26.412 6.506 28.134 8.83 29.114 11.798H22.352C21.68 10.398 20.728 9.348 19.496 8.648C18.292 7.948 16.892 7.598 15.296 7.598C13.588 7.598 12.062 8.004 10.718 8.816C9.402 9.6 8.366 10.72 7.61 12.176C6.882 13.632 6.518 15.34 6.518 17.3C6.518 19.232 6.882 20.94 7.61 22.424C8.366 23.88 9.402 25.014 10.718 25.826C12.062 26.61 13.588 27.002 15.296 27.002C16.892 27.002 18.292 26.652 19.496 25.952C20.728 25.224 21.68 24.16 22.352 22.76H29.114C28.134 25.756 26.412 28.094 23.948 29.774C21.512 31.426 18.642 32.252 15.338 32.252C12.538 32.252 10.004 31.622 7.736 30.362C5.496 29.074 3.718 27.296 2.402 25.028C1.114 22.76 0.47 20.184 0.47 17.3Z" fill="#FF3D00"/>
<path d="M40.0163 12.344C40.7723 11.112 41.7523 10.146 42.9563 9.446C44.1883 8.746 45.5883 8.396 47.1563 8.396V14.57H45.6023C43.7543 14.57 42.3543 15.004 41.4023 15.872C40.4783 16.74 40.0163 18.252 40.0163 20.408V32H34.1363V8.732H40.0163V12.344Z" fill="#4CAF50"/>
<path d="M72.7468 19.862C72.7468 20.702 72.6908 21.458 72.5788 22.13H55.5688C55.7088 23.81 56.2968 25.126 57.3328 26.078C58.3688 27.03 59.6428 27.506 61.1548 27.506C63.3388 27.506 64.8928 26.568 65.8168 24.692H72.1588C71.4868 26.932 70.1988 28.78 68.2948 30.236C66.3908 31.664 64.0528 32.378 61.2808 32.378C59.0408 32.378 57.0248 31.888 55.2328 30.908C53.4688 29.9 52.0828 28.486 51.0748 26.666C50.0948 24.846 49.6047 22.746 49.6047 20.366C49.6047 17.958 50.0948 15.844 51.0748 14.024C52.0548 12.204 53.4268 10.804 55.1908 9.824C56.9548 8.844 58.9848 8.354 61.2808 8.354C63.4928 8.354 65.4668 8.83 67.2028 9.782C68.9668 10.734 70.3248 12.092 71.2768 13.856C72.2568 15.592 72.7468 17.594 72.7468 19.862ZM66.6568 18.182C66.6288 16.67 66.0828 15.466 65.0188 14.57C63.9548 13.646 62.6528 13.184 61.1128 13.184C59.6568 13.184 58.4248 13.632 57.4168 14.528C56.4368 15.396 55.8348 16.614 55.6108 18.182H66.6568Z" fill="#FFA588"/>
<path d="M75.5266 20.282C75.5266 17.93 75.9886 15.844 76.9126 14.024C77.8646 12.204 79.1386 10.804 80.7346 9.824C82.3586 8.844 84.1646 8.354 86.1526 8.354C87.8886 8.354 89.4006 8.704 90.6886 9.404C92.0046 10.104 93.0546 10.986 93.8386 12.05V8.732H99.7606V32H93.8386V28.598C93.0826 29.69 92.0326 30.6 90.6886 31.328C89.3726 32.028 87.8466 32.378 86.1106 32.378C84.1506 32.378 82.3586 31.874 80.7346 30.866C79.1386 29.858 77.8646 28.444 76.9126 26.624C75.9886 24.776 75.5266 22.662 75.5266 20.282ZM93.8386 20.366C93.8386 18.938 93.5586 17.72 92.9986 16.712C92.4386 15.676 91.6826 14.892 90.7306 14.36C89.7786 13.8 88.7566 13.52 87.6646 13.52C86.5726 13.52 85.5646 13.786 84.6406 14.318C83.7166 14.85 82.9606 15.634 82.3726 16.67C81.8126 17.678 81.5326 18.882 81.5326 20.282C81.5326 21.682 81.8126 22.914 82.3726 23.978C82.9606 25.014 83.7166 25.812 84.6406 26.372C85.5926 26.932 86.6006 27.212 87.6646 27.212C88.7566 27.212 89.7786 26.946 90.7306 26.414C91.6826 25.854 92.4386 25.07 92.9986 24.062C93.5586 23.026 93.8386 21.794 93.8386 20.366Z" fill="#86BBE5"/>
<path d="M112.349 13.562V24.818C112.349 25.602 112.531 26.176 112.895 26.54C113.287 26.876 113.931 27.044 114.827 27.044H117.557V32H113.861C108.905 32 106.427 29.592 106.427 24.776V13.562H103.655V8.732H106.427V2.978H112.349V8.732H117.557V13.562H112.349Z" fill="#FEA621"/>
<path d="M143.417 19.862C143.417 20.702 143.361 21.458 143.249 22.13H126.239C126.379 23.81 126.967 25.126 128.003 26.078C129.039 27.03 130.313 27.506 131.825 27.506C134.009 27.506 135.563 26.568 136.487 24.692H142.829C142.157 26.932 140.869 28.78 138.965 30.236C137.061 31.664 134.723 32.378 131.951 32.378C129.711 32.378 127.695 31.888 125.903 30.908C124.139 29.9 122.753 28.486 121.745 26.666C120.765 24.846 120.275 22.746 120.275 20.366C120.275 17.958 120.765 15.844 121.745 14.024C122.725 12.204 124.097 10.804 125.861 9.824C127.625 8.844 129.655 8.354 131.951 8.354C134.163 8.354 136.137 8.83 137.873 9.782C139.637 10.734 140.995 12.092 141.947 13.856C142.927 15.592 143.417 17.594 143.417 19.862ZM137.327 18.182C137.299 16.67 136.753 15.466 135.689 14.57C134.625 13.646 133.323 13.184 131.783 13.184C130.327 13.184 129.095 13.632 128.087 14.528C127.107 15.396 126.505 16.614 126.281 18.182H137.327Z" fill="#1072BA"/>
<path d="M146.197 20.282C146.197 17.93 146.659 15.844 147.583 14.024C148.535 12.204 149.823 10.804 151.447 9.824C153.071 8.844 154.877 8.354 156.865 8.354C158.377 8.354 159.819 8.69 161.191 9.362C162.563 10.006 163.655 10.874 164.467 11.966V0.92H170.431V32H164.467V28.556C163.739 29.704 162.717 30.628 161.401 31.328C160.085 32.028 158.559 32.378 156.823 32.378C154.863 32.378 153.071 31.874 151.447 30.866C149.823 29.858 148.535 28.444 147.583 26.624C146.659 24.776 146.197 22.662 146.197 20.282ZM164.509 20.366C164.509 18.938 164.229 17.72 163.669 16.712C163.109 15.676 162.353 14.892 161.401 14.36C160.449 13.8 159.427 13.52 158.335 13.52C157.243 13.52 156.235 13.786 155.311 14.318C154.387 14.85 153.631 15.634 153.043 16.67C152.483 17.678 152.203 18.882 152.203 20.282C152.203 21.682 152.483 22.914 153.043 23.978C153.631 25.014 154.387 25.812 155.311 26.372C156.263 26.932 157.271 27.212 158.335 27.212C159.427 27.212 160.449 26.946 161.401 26.414C162.353 25.854 163.109 25.07 163.669 24.062C164.229 23.026 164.509 21.794 164.509 20.366Z" fill="#EACA05"/>
<path d="M202.813 16.964C204.465 17.272 205.823 18.098 206.887 19.442C207.951 20.786 208.483 22.326 208.483 24.062C208.483 25.63 208.091 27.016 207.307 28.22C206.551 29.396 205.445 30.32 203.989 30.992C202.533 31.664 200.811 32 198.823 32H186.181V2.684H198.277C200.265 2.684 201.973 3.006 203.401 3.65C204.857 4.294 205.949 5.19 206.677 6.338C207.433 7.486 207.811 8.788 207.811 10.244C207.811 11.952 207.349 13.38 206.425 14.528C205.529 15.676 204.325 16.488 202.813 16.964ZM192.061 14.78H197.437C198.837 14.78 199.915 14.472 200.671 13.856C201.427 13.212 201.805 12.302 201.805 11.126C201.805 9.95 201.427 9.04 200.671 8.396C199.915 7.752 198.837 7.43 197.437 7.43H192.061V14.78ZM197.983 27.212C199.411 27.212 200.517 26.876 201.301 26.204C202.113 25.532 202.519 24.58 202.519 23.348C202.519 22.088 202.099 21.108 201.259 20.408C200.419 19.68 199.285 19.316 197.857 19.316H192.061V27.212H197.983Z" fill="#DF3A32"/>
<path d="M235.429 8.732L221.023 43.004H214.765L219.805 31.412L210.481 8.732H217.075L223.081 24.986L229.171 8.732H235.429Z" fill="#61BC5B"/>
</svg>
