<svg width="100" height="100" viewBox="0 0 100 100" fill="none" xmlns="http://www.w3.org/2000/svg">
<circle cx="50" cy="50" r="50" fill="#FCD900"/>
<path d="M43.3732 46.9865C44.002 46.5312 44.3055 45.7797 44.3055 44.7463C44.3271 44.2549 44.226 43.7707 44.0092 43.3299C43.8141 42.9758 43.525 42.6795 43.1709 42.4699C42.8037 42.2473 42.396 42.0999 41.9713 42.0363C41.5088 41.9496 41.0391 41.9063 40.5766 41.9135H35.4963V47.673H40.9957C41.9424 47.6803 42.7445 47.449 43.3732 46.9865V46.9865ZM44.226 52.1896C43.5178 51.6477 42.5711 51.3803 41.3932 51.3803H35.4818V58.1732H41.2775C41.8195 58.1732 42.3182 58.1227 42.8023 58.0215C43.2604 57.9319 43.6971 57.7553 44.0887 57.5012C44.4572 57.2627 44.7535 56.9375 44.9775 56.5184C45.1943 56.0992 45.3027 55.5645 45.3027 54.9213C45.3027 53.6422 44.9414 52.7389 44.226 52.1896V52.1896ZM50 17.625C32.1215 17.625 17.625 32.1215 17.625 50C17.625 67.8785 32.1215 82.375 50 82.375C67.8785 82.375 82.375 67.8785 82.375 50C82.375 32.1215 67.8785 17.625 50 17.625ZM56.251 38.358H66.2525V40.7934H56.251V38.358ZM50 58.4406C49.5322 59.3286 48.8642 60.0956 48.0488 60.6809C47.1961 61.2734 46.2494 61.707 45.2449 61.96C44.194 62.2416 43.1099 62.3801 42.0219 62.3719H30.0547V37.7221H41.6895C42.8674 37.7221 43.9369 37.8305 44.9125 38.0328C45.8809 38.2352 46.7047 38.582 47.3984 39.0518C48.085 39.5215 48.627 40.1502 49.01 40.9307C49.3857 41.7039 49.5809 42.6723 49.5809 43.8213C49.5809 45.0643 49.299 46.0904 48.7354 46.9215C48.1645 47.7525 47.3406 48.4246 46.2205 48.9521C47.7453 49.3857 48.8654 50.159 49.6025 51.243C50.3541 52.3414 50.7227 53.6566 50.7227 55.2031C50.7227 56.4605 50.4842 57.5373 50 58.4406ZM70.1477 54.625H57.2555C57.2555 56.027 57.7396 57.3711 58.4695 58.0938C59.2066 58.8092 60.2617 59.1705 61.642 59.1705C62.6393 59.1705 63.4848 58.9176 64.2074 58.4189C64.9228 57.9203 65.3564 57.3928 65.5154 56.8436H69.8369C69.1432 58.9898 68.0881 60.5219 66.6572 61.4469C65.2408 62.3719 63.5064 62.8344 61.4902 62.8344C60.0811 62.8344 58.8164 62.6031 57.6818 62.1623C56.5906 61.7359 55.6078 61.0855 54.7984 60.2473C54.0004 59.3864 53.3836 58.3739 52.9846 57.2699C52.5437 56.0486 52.327 54.7623 52.3414 53.4688C52.3414 52.1318 52.5654 50.8889 52.999 49.7326C53.8301 47.4852 55.5572 45.6857 57.7613 44.7535C58.9393 44.2621 60.2039 44.0164 61.483 44.0309C63.0006 44.0309 64.3158 44.3199 65.4576 44.9125C66.5568 45.4784 67.5112 46.2893 68.2471 47.2828C68.977 48.2729 69.49 49.4002 69.8152 50.6721C70.126 51.9223 70.2344 53.2375 70.1477 54.625V54.625ZM61.3312 47.7164C60.5508 47.7164 59.8932 47.8537 59.3873 48.1211C58.8814 48.3885 58.4623 48.7209 58.1443 49.1039C57.8415 49.4737 57.6177 49.9017 57.4867 50.3613C57.3711 50.7443 57.2916 51.1346 57.2627 51.532H65.248C65.1324 50.2818 64.6988 49.3568 64.1207 48.7064C63.5137 48.0633 62.5381 47.7164 61.3312 47.7164V47.7164Z" fill="black"/>
</svg>
