<svg width="100" height="100" viewBox="0 0 100 100" fill="none" xmlns="http://www.w3.org/2000/svg">
<circle cx="50" cy="50" r="50" fill="#8A3AB9"/>
<path fill-rule="evenodd" clip-rule="evenodd" d="M36.0171 16.2868C39.6338 16.1203 40.787 16.0833 50 16.0833C59.213 16.0833 60.3661 16.1234 63.9798 16.2868C67.5935 16.4502 70.0601 17.0268 72.2185 17.8624C74.4786 18.7165 76.529 20.0516 78.2248 21.7782C79.9515 23.471 81.2835 25.5183 82.1345 27.7815C82.9731 29.9398 83.5466 32.4065 83.7131 36.014C83.8796 39.6369 83.9166 40.7901 83.9166 50C83.9166 59.213 83.8766 60.3662 83.7131 63.9829C83.5497 67.5904 82.9731 70.0571 82.1345 72.2154C81.2835 74.4789 79.9493 76.5296 78.2248 78.2248C76.529 79.9515 74.4786 81.2835 72.2185 82.1345C70.0601 82.9732 67.5935 83.5467 63.986 83.7132C60.3661 83.8797 59.213 83.9167 50 83.9167C40.787 83.9167 39.6338 83.8766 36.0171 83.7132C32.4096 83.5497 29.9429 82.9732 27.7846 82.1345C25.5212 81.2834 23.4704 79.9492 21.7751 78.2248C20.0497 76.5311 18.7144 74.4813 17.8624 72.2185C17.0268 70.0602 16.4533 67.5935 16.2868 63.986C16.1203 60.3631 16.0833 59.2099 16.0833 50C16.0833 40.787 16.1234 39.6338 16.2868 36.0202C16.4502 32.4065 17.0268 29.9398 17.8624 27.7815C18.7156 25.5186 20.0519 23.4689 21.7782 21.7752C23.4711 20.05 25.5198 18.7148 27.7815 17.8624C29.9398 17.0268 32.4065 16.4533 36.014 16.2868H36.0171ZM63.7054 22.3918C60.1287 22.2284 59.0557 22.1945 50 22.1945C40.9442 22.1945 39.8712 22.2284 36.2946 22.3918C32.9861 22.5429 31.1916 23.0948 29.9953 23.5604C28.4136 24.1771 27.282 24.9078 26.0949 26.0949C24.9696 27.1897 24.1036 28.5224 23.5604 29.9953C23.0948 31.1917 22.5429 32.9862 22.3918 36.2946C22.2284 39.8712 22.1945 40.9442 22.1945 50C22.1945 59.0557 22.2284 60.1287 22.3918 63.7054C22.5429 67.0138 23.0948 68.8083 23.5604 70.0047C24.1031 71.4754 24.9695 72.8105 26.0949 73.9051C27.1895 75.0305 28.5246 75.8969 29.9953 76.4396C31.1916 76.9052 32.9861 77.4571 36.2946 77.6082C39.8712 77.7716 40.9411 77.8055 50 77.8055C59.0588 77.8055 60.1287 77.7716 63.7054 77.6082C67.0138 77.4571 68.8083 76.9052 70.0046 76.4396C71.5864 75.8229 72.718 75.0922 73.9051 73.9051C75.0305 72.8105 75.8969 71.4754 76.4396 70.0047C76.9051 68.8083 77.4571 67.0138 77.6081 63.7054C77.7716 60.1287 77.8055 59.0557 77.8055 50C77.8055 40.9442 77.7716 39.8712 77.6081 36.2946C77.4571 32.9862 76.9051 31.1917 76.4396 29.9953C75.8229 28.4136 75.0921 27.282 73.9051 26.0949C72.8102 24.9697 71.4776 24.1037 70.0046 23.5604C68.8083 23.0948 67.0138 22.5429 63.7054 22.3918V22.3918ZM45.6679 60.4556C48.0873 61.4627 50.7812 61.5986 53.2897 60.8401C55.7981 60.0817 57.9654 58.4758 59.4214 56.2969C60.8774 54.118 61.5318 51.5012 61.2728 48.8934C61.0138 46.2856 59.8574 43.8487 58.0012 41.9987C56.818 40.8162 55.3872 39.9107 53.812 39.3475C52.2368 38.7843 50.5563 38.5774 48.8915 38.7416C47.2267 38.9058 45.619 39.437 44.1842 40.2971C42.7494 41.1573 41.5231 42.3248 40.5937 43.7157C39.6642 45.1066 39.0547 46.6863 38.8091 48.341C38.5634 49.9958 38.6877 51.6844 39.173 53.2853C39.6583 54.8863 40.4925 56.3597 41.6155 57.5995C42.7386 58.8394 44.1226 59.8148 45.6679 60.4556ZM37.6728 37.6728C39.2916 36.054 41.2135 34.7699 43.3286 33.8938C45.4437 33.0177 47.7106 32.5667 50 32.5667C52.2893 32.5667 54.5563 33.0177 56.6714 33.8938C58.7865 34.7699 60.7083 36.054 62.3271 37.6728C63.946 39.2917 65.2301 41.2135 66.1062 43.3286C66.9823 45.4437 67.4332 47.7106 67.4332 50C67.4332 52.2894 66.9823 54.5563 66.1062 56.6714C65.2301 58.7865 63.946 60.7083 62.3271 62.3272C59.0578 65.5965 54.6236 67.4332 50 67.4332C45.3764 67.4332 40.9422 65.5965 37.6728 62.3272C34.4034 59.0578 32.5667 54.6236 32.5667 50C32.5667 45.3764 34.4034 40.9422 37.6728 37.6728V37.6728ZM71.2996 35.163C71.7008 34.7846 72.0219 34.3295 72.2441 33.8247C72.4662 33.32 72.5848 32.7758 72.5928 32.2244C72.6009 31.6729 72.4982 31.1255 72.2909 30.6145C72.0836 30.1035 71.7758 29.6392 71.3859 29.2493C70.9959 28.8593 70.5317 28.5516 70.0206 28.3443C69.5096 28.1369 68.9622 28.0343 68.4108 28.0423C67.8594 28.0503 67.3152 28.1689 66.8104 28.3911C66.3056 28.6132 65.8506 28.9343 65.4721 29.3355C64.7362 30.1157 64.3333 31.152 64.3489 32.2244C64.3645 33.2968 64.7975 34.3209 65.5559 35.0793C66.3143 35.8376 67.3384 36.2706 68.4108 36.2862C69.4832 36.3019 70.5195 35.899 71.2996 35.163V35.163Z" fill="white"/>
</svg>
