<svg width="100" height="103" viewBox="0 0 100 103" fill="none" xmlns="http://www.w3.org/2000/svg">
<path fill-rule="evenodd" clip-rule="evenodd" d="M37.7672 0.930756C36.8729 0.616458 35.9051 0.596172 34.9989 0.872733C34.0928 1.14929 33.2937 1.70888 32.7133 2.47328L0.955879 44.2888C0.336357 45.1044 0 46.1082 0 47.1415C0 48.1749 0.336357 49.1787 0.955879 49.9943L32.7133 91.8098C33.2939 92.5734 34.0928 93.1322 34.9986 93.4083C35.9044 93.6844 36.8717 93.6639 37.7655 93.3498C38.6594 93.0356 39.4351 92.4434 39.9844 91.6559C40.5337 90.8684 40.8292 89.9249 40.8296 88.957V70.4188C65.2329 70.9392 76.9559 75.6829 82.8446 80.8402C88.443 85.7419 89.4683 91.5078 90.5344 97.5478L90.8112 99.1043C91.0148 100.218 91.6087 101.217 92.4813 101.914C93.354 102.61 94.445 102.956 95.5493 102.887C96.6537 102.817 97.695 102.337 98.4776 101.536C99.2601 100.735 99.7299 99.6683 99.7985 98.5374C100.579 85.7698 99.4084 67.2687 90.6025 51.7924C82.0552 36.7713 66.6665 25.2209 40.8296 24.0129V5.32603C40.8298 4.358 40.5349 3.41406 39.9858 2.62606C39.4368 1.83806 38.6612 1.24536 37.7672 0.930756Z" fill="#FEA621"/>
</svg>
