<svg width="154" height="125" viewBox="0 0 154 125" fill="none" xmlns="http://www.w3.org/2000/svg">
<path d="M153.115 15.2213C147.481 17.7195 141.427 19.4079 135.073 20.1675C141.559 16.2799 146.54 10.1238 148.885 2.78889C142.719 6.44789 135.973 9.02589 128.938 10.4115C123.208 4.30683 115.044 0.491638 106.009 0.491638C88.6611 0.491638 74.5959 14.5562 74.5959 31.9031C74.5959 34.3654 74.874 36.7626 75.4093 39.0622C49.3028 37.7518 26.1569 25.2464 10.6635 6.24164C7.96015 10.881 6.41111 16.2775 6.41111 22.0335C6.41111 32.9318 11.9572 42.5461 20.3854 48.1794C15.397 48.0232 10.5185 46.6759 6.15692 44.25C6.15512 44.3816 6.15512 44.5132 6.15512 44.6453C6.15512 59.8648 16.9829 72.561 31.3525 75.4468C26.7268 76.7048 21.8748 76.8889 17.1671 75.9851C21.1641 88.4647 32.7652 97.5461 46.5104 97.8002C35.7598 106.225 22.2149 111.247 7.49843 111.247C4.96254 111.247 2.46254 111.098 0.00500488 110.808C13.9063 119.721 30.4177 124.921 48.1569 124.921C105.936 124.921 137.531 77.0556 137.531 35.5461C137.531 34.1836 137.501 32.829 137.44 31.4821C143.59 27.0364 148.898 21.53 153.115 15.2213" fill="#55ACEE"/>
</svg>
