<svg width="172" height="31" viewBox="0 0 172 31" fill="none" xmlns="http://www.w3.org/2000/svg">
<path d="M32.86 0.683999V30H26.98V10.932L19.126 30H14.674L6.778 10.932V30H0.898V0.683999H7.576L16.9 22.482L26.224 0.683999H32.86ZM104.723 5.43V12.78H114.593V17.442H104.723V25.212H115.853V30H98.8433V0.641997H115.853V5.43H104.723Z" fill="#1976D2"/>
<path d="M56.6494 24.414H44.9734L43.0414 30H36.8674L47.4094 0.641997H54.2554L64.7974 30H58.5814L56.6494 24.414ZM55.0534 19.71L50.8114 7.446L46.5694 19.71H55.0534ZM171.109 0.683999V30H165.229V17.526H152.671V30H146.791V0.683999H152.671V12.738H165.229V0.683999H171.109Z" fill="#FF3D00"/>
<path d="M93.0558 0.683999V30H87.1758V17.526H74.6178V30H68.7378V0.683999H74.6178V12.738H87.1758V0.683999H93.0558Z" fill="#FFC107"/>
<path d="M131.319 30.294C129.275 30.294 127.427 29.944 125.775 29.244C124.151 28.544 122.863 27.536 121.911 26.22C120.959 24.904 120.469 23.35 120.441 21.558H126.741C126.825 22.762 127.245 23.714 128.001 24.414C128.785 25.114 129.849 25.464 131.193 25.464C132.565 25.464 133.643 25.142 134.427 24.498C135.211 23.826 135.603 22.958 135.603 21.894C135.603 21.026 135.337 20.312 134.805 19.752C134.273 19.192 133.601 18.758 132.789 18.45C132.005 18.114 130.913 17.75 129.513 17.358C127.609 16.798 126.055 16.252 124.851 15.72C123.675 15.16 122.653 14.334 121.785 13.242C120.945 12.122 120.525 10.638 120.525 8.79C120.525 7.054 120.959 5.542 121.827 4.254C122.695 2.966 123.913 1.986 125.481 1.314C127.049 0.613999 128.841 0.264 130.857 0.264C133.881 0.264 136.331 1.006 138.207 2.49C140.111 3.946 141.161 5.99 141.357 8.622H134.889C134.833 7.614 134.399 6.788 133.587 6.144C132.803 5.472 131.753 5.136 130.437 5.136C129.289 5.136 128.365 5.43 127.665 6.018C126.993 6.606 126.657 7.46 126.657 8.58C126.657 9.364 126.909 10.022 127.413 10.554C127.945 11.058 128.589 11.478 129.345 11.814C130.129 12.122 131.221 12.486 132.621 12.906C134.525 13.466 136.079 14.026 137.283 14.586C138.487 15.146 139.523 15.986 140.391 17.106C141.259 18.226 141.693 19.696 141.693 21.516C141.693 23.084 141.287 24.54 140.475 25.884C139.663 27.228 138.473 28.306 136.905 29.118C135.337 29.902 133.475 30.294 131.319 30.294Z" fill="#4CAF50"/>
</svg>
