<svg width="100" height="103" viewBox="0 0 100 103" fill="none" xmlns="http://www.w3.org/2000/svg">
<path fill-rule="evenodd" clip-rule="evenodd" d="M62.2328 0.930756C63.1271 0.616458 64.0949 0.596172 65.0011 0.872733C65.9072 1.14929 66.7063 1.70888 67.2867 2.47328L99.0441 44.2888C99.6636 45.1044 100 46.1082 100 47.1415C100 48.1749 99.6636 49.1787 99.0441 49.9943L67.2867 91.8098C66.7061 92.5734 65.9072 93.1322 65.0014 93.4083C64.0956 93.6844 63.1283 93.6639 62.2345 93.3498C61.3406 93.0356 60.5649 92.4434 60.0156 91.6559C59.4663 90.8684 59.1708 89.9249 59.1704 88.957V70.4188C34.7671 70.9392 23.0441 75.6829 17.1554 80.8402C11.557 85.7419 10.5317 91.5078 9.46557 97.5478L9.18882 99.1043C8.98524 100.218 8.39126 101.217 7.51866 101.914C6.64605 102.61 5.55495 102.956 4.45065 102.887C3.34635 102.817 2.30496 102.337 1.52241 101.536C0.739856 100.735 0.270086 99.6683 0.201479 98.5374C-0.578846 85.7698 0.591641 67.2687 9.39752 51.7924C17.9448 36.7713 33.3335 25.2209 59.1704 24.0129V5.32603C59.1702 4.358 59.4651 3.41406 60.0142 2.62606C60.5632 1.83806 61.3388 1.24536 62.2328 0.930756Z" fill="#FEA621"/>
</svg>
