<svg width="48" height="894" viewBox="0 0 48 894" fill="none" xmlns="http://www.w3.org/2000/svg">
<line x1="20.5" x2="20.5" y2="306" stroke="white"/>
<line x1="20.5" y1="588" x2="20.5" y2="894" stroke="white"/>
<ellipse cx="24" cy="349.098" rx="24" ry="28.0976" fill="#FFD233"/>
<ellipse cx="24" cy="445.098" rx="24" ry="28.0976" fill="#61BC5B"/>
<ellipse cx="24" cy="541.098" rx="24" ry="28.0976" fill="#8A3AB9"/>
<path d="M19.9062 347.576C20.2946 347.288 20.4821 346.812 20.4821 346.158C20.4955 345.847 20.433 345.541 20.2991 345.262C20.1786 345.038 20 344.851 19.7812 344.718C19.5544 344.577 19.3025 344.484 19.0402 344.444C18.7545 344.389 18.4643 344.362 18.1786 344.366H15.0402V348.01H18.4375C19.0223 348.015 19.5179 347.868 19.9062 347.576ZM20.433 350.867C19.9955 350.525 19.4107 350.355 18.683 350.355H15.0313V354.653H18.6116C18.9464 354.653 19.2545 354.621 19.5536 354.557C19.8366 354.5 20.1063 354.389 20.3482 354.228C20.5759 354.077 20.7589 353.871 20.8973 353.606C21.0312 353.341 21.0982 353.003 21.0982 352.596C21.0982 351.786 20.875 351.215 20.433 350.867ZM24 329C12.9554 329 4 338.171 4 349.482C4 360.793 12.9554 369.964 24 369.964C35.0446 369.964 44 360.793 44 349.482C44 338.171 35.0446 329 24 329ZM27.8616 342.117H34.0402V343.658H27.8616V342.117ZM24 354.822C23.711 355.384 23.2983 355.869 22.7946 356.239C22.2679 356.614 21.683 356.889 21.0625 357.049C20.4133 357.227 19.7435 357.314 19.0714 357.309H11.6786V341.714H18.8661C19.5938 341.714 20.2545 341.783 20.8571 341.911C21.4554 342.039 21.9643 342.259 22.3929 342.556C22.817 342.853 23.1518 343.251 23.3884 343.744C23.6205 344.234 23.7411 344.846 23.7411 345.573C23.7411 346.36 23.567 347.009 23.2188 347.535C22.8661 348.06 22.3571 348.485 21.6652 348.819C22.6071 349.094 23.2991 349.583 23.7545 350.269C24.2188 350.963 24.4464 351.796 24.4464 352.774C24.4464 353.569 24.2991 354.251 24 354.822ZM36.4464 352.408H28.4821C28.4821 353.295 28.7813 354.145 29.2321 354.603C29.6875 355.055 30.3393 355.284 31.192 355.284C31.808 355.284 32.3304 355.124 32.7768 354.808C33.2188 354.493 33.4866 354.159 33.5848 353.812H36.2545C35.8259 355.17 35.1741 356.139 34.2902 356.724C33.4152 357.309 32.3438 357.602 31.0982 357.602C30.2277 357.602 29.4464 357.456 28.7455 357.177C28.0714 356.907 27.4643 356.495 26.9643 355.965C26.4713 355.42 26.0902 354.78 25.8438 354.081C25.5714 353.309 25.4375 352.495 25.4464 351.677C25.4464 350.831 25.5848 350.044 25.8527 349.313C26.3661 347.891 27.433 346.753 28.7946 346.163C29.5223 345.852 30.3036 345.697 31.0938 345.706C32.0313 345.706 32.8438 345.889 33.5491 346.264C34.2282 346.622 34.8177 347.135 35.2723 347.763C35.7232 348.389 36.0402 349.103 36.2411 349.907C36.433 350.698 36.5 351.53 36.4464 352.408ZM31 348.037C30.5179 348.037 30.1116 348.124 29.7991 348.293C29.4866 348.463 29.2277 348.673 29.0313 348.915C28.8442 349.149 28.7059 349.42 28.625 349.711C28.5536 349.953 28.5045 350.2 28.4866 350.451H33.4196C33.3482 349.66 33.0804 349.075 32.7232 348.664C32.3482 348.257 31.7455 348.037 31 348.037Z" fill="black"/>
<path d="M24 424C12.954 424 4 433.17 4 444.482C4 455.794 12.954 464.964 24 464.964C35.046 464.964 44 455.794 44 444.482C44 433.17 35.046 424 24 424ZM24 426.968C28.357 426.968 32.334 428.637 35.354 431.384C33.135 434.381 29.764 436.377 26.386 437.728C24.4737 434.162 22.3306 430.73 19.971 427.456C21.2907 427.131 22.6435 426.967 24.001 426.968H24ZM16.724 428.627C18.954 432.043 21.114 435.211 23.087 438.796C18.097 440.12 12.458 440.915 7.249 440.928C8.347 435.472 11.926 430.941 16.724 428.628V428.627ZM37.251 433.409C39.7223 436.502 41.0817 440.37 41.102 444.366C37.146 443.568 33.212 443.359 29.206 443.772C28.756 442.622 28.21 441.53 27.687 440.352C31.14 438.925 34.832 436.484 37.251 433.408V433.409ZM24.476 441.506C24.904 442.438 25.4 443.427 25.866 444.438C20.296 446.953 14.371 450.314 11.296 456.207C8.34401 452.862 6.7708 448.476 6.906 443.969C12.871 443.94 18.726 443.176 24.476 441.506ZM33.514 446.282C36.0028 446.282 38.4813 446.609 40.889 447.254C40.5178 449.626 39.6739 451.895 38.41 453.919C37.1461 455.943 35.489 457.678 33.542 459.018C32.624 454.743 31.749 450.651 30.202 446.526C31.2984 446.363 32.405 446.281 33.513 446.28L33.514 446.282ZM40.978 446.599C40.966 446.699 40.955 446.798 40.941 446.896C40.955 446.797 40.967 446.698 40.978 446.599ZM27.038 447.326C28.614 451.497 29.851 456.116 30.681 460.611C28.5682 461.529 26.2961 462.001 24.001 461.997C20.1988 462.003 16.5043 460.705 13.506 458.311C16.603 453.166 21.4 449.272 27.037 447.327L27.038 447.326Z" fill="black"/>
<path fill-rule="evenodd" clip-rule="evenodd" d="M15.7545 521.123C17.8873 521.022 18.5673 521 24 521C29.4327 521 30.1127 521.024 32.2436 521.123C34.3745 521.222 35.8291 521.57 37.1018 522.074C38.4345 522.59 39.6436 523.396 40.6436 524.439C41.6618 525.461 42.4473 526.698 42.9491 528.064C43.4436 529.368 43.7818 530.858 43.88 533.036C43.9782 535.224 44 535.92 44 541.482C44 547.046 43.9764 547.742 43.88 549.926C43.7836 552.105 43.4436 553.595 42.9491 554.898C42.4473 556.265 41.6605 557.503 40.6436 558.527C39.6436 559.57 38.4345 560.374 37.1018 560.888C35.8291 561.395 34.3745 561.741 32.2473 561.841C30.1127 561.942 29.4327 561.964 24 561.964C18.5673 561.964 17.8873 561.94 15.7545 561.841C13.6273 561.743 12.1727 561.395 10.9 560.888C9.56531 560.374 8.35604 559.568 7.35636 558.527C6.33887 557.504 5.55148 556.266 5.04909 554.9C4.55636 553.596 4.21818 552.107 4.12 549.928C4.02182 547.74 4 547.044 4 541.482C4 535.918 4.02364 535.222 4.12 533.04C4.21636 530.858 4.55636 529.368 5.04909 528.064C5.55222 526.698 6.34022 525.46 7.35818 524.437C8.35644 523.395 9.5645 522.589 10.8982 522.074C12.1709 521.57 13.6255 521.223 15.7527 521.123H15.7545ZM32.0818 524.81C29.9727 524.711 29.34 524.691 24 524.691C18.66 524.691 18.0273 524.711 15.9182 524.81C13.9673 524.901 12.9091 525.234 12.2036 525.515C11.2709 525.888 10.6036 526.329 9.90364 527.046C9.24008 527.707 8.72942 528.512 8.40909 529.401C8.13455 530.124 7.80909 531.208 7.72 533.206C7.62364 535.365 7.60364 536.013 7.60364 541.482C7.60364 546.951 7.62364 547.599 7.72 549.759C7.80909 551.757 8.13455 552.84 8.40909 553.563C8.72909 554.451 9.24 555.257 9.90364 555.918C10.5491 556.598 11.3364 557.121 12.2036 557.449C12.9091 557.73 13.9673 558.063 15.9182 558.155C18.0273 558.253 18.6582 558.274 24 558.274C29.3418 558.274 29.9727 558.253 32.0818 558.155C34.0327 558.063 35.0909 557.73 35.7964 557.449C36.7291 557.077 37.3964 556.635 38.0964 555.918C38.76 555.257 39.2709 554.451 39.5909 553.563C39.8655 552.84 40.1909 551.757 40.28 549.759C40.3764 547.599 40.3964 546.951 40.3964 541.482C40.3964 536.013 40.3764 535.365 40.28 533.206C40.1909 531.208 39.8655 530.124 39.5909 529.401C39.2273 528.446 38.7964 527.763 38.0964 527.046C37.4508 526.366 36.6649 525.843 35.7964 525.515C35.0909 525.234 34.0327 524.901 32.0818 524.81ZM21.4455 547.796C22.8721 548.404 24.4607 548.487 25.9399 548.029C27.4191 547.57 28.6971 546.601 29.5557 545.285C30.4142 543.969 30.8001 542.389 30.6474 540.814C30.4946 539.239 29.8127 537.767 28.7182 536.65C28.0204 535.936 27.1768 535.389 26.2479 535.049C25.319 534.709 24.3281 534.584 23.3464 534.683C22.3647 534.782 21.4166 535.103 20.5706 535.623C19.7245 536.142 19.0014 536.847 18.4533 537.687C17.9052 538.527 17.5458 539.481 17.4009 540.48C17.2561 541.48 17.3294 542.499 17.6155 543.466C17.9017 544.433 18.3936 545.323 19.0559 546.072C19.7181 546.82 20.5342 547.409 21.4455 547.796ZM16.7309 534.038C17.6855 533.06 18.8188 532.285 20.066 531.756C21.3132 531.227 22.65 530.954 24 530.954C25.35 530.954 26.6868 531.227 27.934 531.756C29.1812 532.285 30.3145 533.06 31.2691 534.038C32.2237 535.015 32.9809 536.176 33.4975 537.453C34.0141 538.731 34.28 540.1 34.28 541.482C34.28 542.865 34.0141 544.234 33.4975 545.511C32.9809 546.788 32.2237 547.949 31.2691 548.927C29.3412 550.901 26.7264 552.01 24 552.01C21.2736 552.01 18.6588 550.901 16.7309 548.927C14.803 546.952 13.72 544.274 13.72 541.482C13.72 538.69 14.803 536.012 16.7309 534.038ZM36.56 532.522C36.7966 532.294 36.9859 532.019 37.1169 531.714C37.2479 531.409 37.3178 531.081 37.3226 530.748C37.3273 530.415 37.2668 530.084 37.1445 529.775C37.0223 529.467 36.8408 529.186 36.6108 528.951C36.3809 528.715 36.1071 528.53 35.8058 528.404C35.5045 528.279 35.1817 528.217 34.8565 528.222C34.5313 528.227 34.2104 528.298 33.9128 528.433C33.6151 528.567 33.3468 528.761 33.1236 529.003C32.6897 529.474 32.4521 530.1 32.4613 530.748C32.4705 531.395 32.7258 532.014 33.173 532.472C33.6202 532.93 34.2241 533.191 34.8565 533.2C35.4889 533.21 36.0999 532.967 36.56 532.522Z" fill="white"/>
</svg>
